<svg xmlns="http://www.w3.org/2000/svg" viewBox="0 0 64 64" role="img" aria-label="Central de Viagens">
  <defs>
    <linearGradient id="bg" x1="0" y1="0" x2="1" y2="1">
      <stop offset="0%" stop-color="#123c69" />
      <stop offset="100%" stop-color="#2a6f97" />
    </linearGradient>
  </defs>
  <rect width="64" height="64" rx="14" fill="url(#bg)" />
  <path d="M17 33c0-8.8 6.8-16 15.3-16 4.8 0 9.3 2.3 12.2 6.1l-5.1 3.7c-1.7-2.2-4.3-3.6-7.1-3.6-5 0-9.1 4.4-9.1 9.8s4.1 9.8 9.1 9.8c2.8 0 5.4-1.3 7.1-3.6l5.1 3.7c-2.9 3.8-7.4 6.1-12.2 6.1C23.8 49 17 41.8 17 33z" fill="#ffffff" />
  <path d="M46 18h4l-8 28h-4l8-28z" fill="#ffd166" />
</svg>
